<svg xmlns="http://www.w3.org/2000/svg" xmlns:xlink="http://www.w3.org/1999/xlink" width="234.6667" height="221.6056" viewBox="0 0 234.6667 221.6056"><defs><style>.a{fill:none;}.b{fill:#50b4de;}.c{fill:#fff;}.d{clip-path:url(#a);}.e{fill:#e3e3e3;}.f{fill:#db4f5d;}.g{fill:#edc0aa;}.h{fill:#e0a489;}.i{fill:#282828;}.j{fill:#3b3b3d;}.k{fill:#efeff0;}.l{fill:#ced0d1;}.m{fill:#d1515e;}.n{fill:#f2c4ae;}.o{fill:#864242;}.p{fill:#323232;}</style><clipPath id="a"><rect class="a" x="12.8831" width="208.6666" height="208.6667" rx="104.3332"/></clipPath></defs><circle class="b" cx="117.2164" cy="104.3334" r="92.3333" transform="translate(-39.4429 113.4431) rotate(-45)"/><path class="c" d="M117.2165,0h0A104.3333,104.3333,0,0,0,12.8831,104.3333v0A104.3332,104.3332,0,0,0,117.2163,208.6667h0A104.3331,104.3331,0,0,0,221.55,104.3335v0A104.3332,104.3332,0,0,0,117.2165,0ZM24.8831,104.3333a92.3333,92.3333,0,1,1,92.3332,92.3334A92.438,92.438,0,0,1,24.8831,104.3333Z"/><g class="d"><rect class="a" x="109.1917" y="182.2056" width="1.29" transform="translate(-102.5418 169.6207) rotate(-55.5265)"/><polygon class="a" points="96.214 163.384 93.911 161.081 96.214 163.384 96.214 163.384"/><rect class="a" x="124.7226" y="182.2964" height="0.4834" transform="translate(-81.417 102.6484) rotate(-34.4725)"/><polygon class="a" points="141.412 182.737 146.086 168.415 141.412 182.737 141.412 182.737"/><polygon class="a" points="138.126 163.375 140.42 161.081 138.126 163.375 138.126 163.375"/><polygon class="a" points="92.919 182.737 92.919 182.737 88.245 168.415 92.919 182.737"/><polygon class="e" points="141.412 182.737 136.079 199.079 124.86 182.737 124.859 182.737 127.626 186.767 120.828 196.081 123.328 208.248 133.086 208.248 141.412 182.737 141.412 182.737"/><path class="e" d="M106.8067,186.6191l2.6649-3.8817h0L98.2523,199.079,92.919,182.7374h0l8.3257,25.5107h8.3333l3.5-12.1666Q109.9424,191.35,106.8067,186.6191Z"/><path class="f" d="M116.9947,195.1648a8.6765,8.6765,0,0,0-3.9167.9167l-3.5,12.1666h13.75l-2.5-12.1666A8.6755,8.6755,0,0,0,116.9947,195.1648Z"/><path class="g" d="M96.214,163.3841h0l15.739,15.739h10.4251l15.7481-15.7481h0l-.0091.0091-.301-2.2987-2.4047-17.7539-.0109.0009L136.72,152.99c-2.6084,3.4087-14.9749,10.3412-20.2666,10.3938-5.104.0507-18.2666-8.8807-19.1939-9.5143l-.7922,7.2117h0Z"/><polygon class="g" points="124.586 182.339 122.378 179.123 124.586 182.339 124.586 182.339"/><polygon class="g" points="111.953 179.123 110.202 181.674 110.202 181.674 111.953 179.123"/><polygon class="g" points="109.241 145.493 98.078 146.415 97.459 152.053 98.161 147.165 109.241 145.493"/><path class="h" d="M136.72,152.99l-1.3191-9.6579-.2391-1.7509-25.92,3.9113-11.08,1.672-.7027,4.8883-.2557,1.7784.0561.0383c.9273.6336,14.09,9.565,19.1939,9.5143C121.7447,163.3315,134.1112,156.399,136.72,152.99Z"/><path class="i" d="M88.7447,198.4148l-15-6.5,7.1708-21.5125L43.578,181.2481s-7.875,7.875-18.5,27h55.5l-2.8333-6.6666Z"/><polygon class="j" points="88.245 168.415 93.911 161.081 81.578 168.415 80.916 170.402 73.745 191.915 88.745 198.415 77.745 201.581 80.578 208.248 97.203 208.248 101.245 208.248 92.919 182.737 88.245 168.415"/><polygon class="k" points="92.919 182.737 98.252 199.079 109.472 182.737 110.202 181.674 111.953 179.123 96.214 163.384 93.911 161.081 88.245 168.415 92.919 182.737"/><polygon class="l" points="96.214 163.384 96.467 161.081 96.467 161.081 93.911 161.081 96.214 163.384 96.214 163.384"/><path class="i" d="M190.7531,181.2481l-37.3375-10.8458,7.1708,21.5125-15,6.5,11,3.1667-2.8333,6.6666h55.5C198.6281,189.1231,190.7531,181.2481,190.7531,181.2481Z"/><polygon class="j" points="145.586 198.415 160.586 191.915 153.416 170.402 152.753 168.415 140.42 161.081 146.086 168.415 141.412 182.737 133.086 208.248 137.128 208.248 153.753 208.248 156.586 201.581 145.586 198.415"/><polygon class="k" points="122.378 179.123 124.586 182.339 124.86 182.737 136.079 199.079 141.412 182.737 146.086 168.415 140.42 161.081 138.126 163.375 122.378 179.123"/><polygon class="l" points="138.126 163.375 140.42 161.081 137.816 161.081 137.816 161.085 138.117 163.384 138.126 163.375"/><path class="m" d="M122.3781,179.1231H111.953l-1.7512,2.5508-.73,1.0635-2.6649,3.8817q3.1356,4.7313,6.2713,9.4624a8.6475,8.6475,0,0,1,7.75,0l6.7981-9.3142-2.7667-4.03-.2736-.3985Z"/><path class="n" d="M150.203,96.7481s2.375-46.6667-35.4582-46.5c-37.8335-.1667-35.4585,46.5-35.4585,46.5-4.375-.25-9.25-.375-8.25,11.5s12.0417,13,12.0417,13c.6668,12,8.3333,23.6667,14,28.6667s17.6668,5,17.6668,5,12,0,17.6665-5,13.3335-16.6667,14-28.6667c0,0,11.0417-1.125,12.0417-13S154.578,96.4981,150.203,96.7481Z"/><path class="o" d="M74.6969,65.9967c5.6592-19.3333,40.7568-33.1466,62.4276-17.672.6722-3.0534,2.4457-4.12,6.4457-5.078-2.0794,2.2989-3.1667,3.4167-2.75,5.2917,1.74-2.1589,4.1768-1.7435,6.9166-1.4583-2.9753.6076-4.7083,2.2083-5.4095,4.1236,5.1024.7893,17.8262,9.6264,15.5219,23.3713-3.8693,23.08-4.5,22.175-4.5,22.175s-3.5,2.75-5,10.25c0,0-1.75-21.25-2.5-24.5s-7.25-13-7.25-13S117.2368,86.33,99.9868,83.83c0,0,5.8334-3.9167,2.5417-9.7084-2.1875,3.0625-4.94,9.2917-12.5417,8.9584,2.7084-2,2.9584-4.3334,2-7.4167-1.625,3.25-8.3,7.3658-8.8876,6.8366l-1.5,22s-1.8057-7.9706-6.9023-7.4483C74.6969,97.0517,72.1212,74.7961,74.6969,65.9967Z"/><path class="p" d="M121.1783,96.6005c-2.03.6694-4.424,1.62-6.4613,1.62s-4.4314-.9507-6.4613-1.62c-5.0865-1.6775-17.3665-2.8016-26.0845-.707A2.3658,2.3658,0,0,0,80.36,98.3214l.0615,1.1344a2.4368,2.4368,0,0,0,1.31,1.9891,1.9228,1.9228,0,0,1,.8979,1.2094c.5239,1.7463,1.7406,8.9455,3.9656,11.7583,2.7626,3.4926,8.7123,3.6268,12.7356,3.4539,5.4171-.2329,8.9643-2.6389,10.4777-6.7136s2.3675-7.5673,3.3366-8.6732a2.2516,2.2516,0,0,1,3.1452,0c.9691,1.1059,1.8231,4.5985,3.3366,8.6732s5.0606,6.4807,10.4777,6.7136c4.0233.1729,9.973.0387,12.7357-3.4539,2.2249-2.8128,3.4416-10.012,3.9655-11.7583a1.9233,1.9233,0,0,1,.8979-1.21,2.4365,2.4365,0,0,0,1.31-1.989l.0615-1.1344a2.3658,2.3658,0,0,0-1.8116-2.4279C138.5448,93.7989,126.2649,94.923,121.1783,96.6005Zm-13.7957,14.5524c-1.4553,2.7359-3.9,4.1329-7.5673,4.5986s-8.0522-.2522-10.2642-1.5717c-1.9453-1.16-2.8912-4.8314-3.3568-7.0434s-1.2807-6.9851.99-8.5568,7.9779-1.6867,11.7584-1.4552c2.8523.1746,9.0225.9313,10.1867,3.1433S108.56,108.9389,107.3826,111.1529Zm35.8572-4.0165c-.4657,2.212-1.4116,5.8831-3.3569,7.0434-2.212,1.32-6.597,2.0374-10.2642,1.5717s-6.112-1.8627-7.5673-4.5986c-1.1778-2.214-2.91-8.6732-1.7463-10.8852s7.3345-2.9687,10.1867-3.1433c3.78-.2315,9.4882-.1164,11.7584,1.4552S143.7054,104.9245,143.24,107.1364Z"/></g></svg>