<svg width="24" height="25" viewBox="0 0 24 25" fill="none" xmlns="http://www.w3.org/2000/svg">
<mask id="mask0_5341_30980" style="mask-type:alpha" maskUnits="userSpaceOnUse" x="3" y="2" width="18" height="21">
<path fill-rule="evenodd" clip-rule="evenodd" d="M3.00049 2.34521H20.0532V22.1987H3.00049V2.34521Z" fill="white"/>
</mask>
<g mask="url(#mask0_5341_30980)">
<path fill-rule="evenodd" clip-rule="evenodd" d="M7.57359 3.84521C5.91659 3.84521 4.54059 5.18721 4.50159 6.84221V17.5372C4.46459 19.2502 5.81459 20.6612 7.51059 20.6992H15.5746C17.2436 20.6302 18.5656 19.2432 18.5536 17.5432V8.67321L13.9186 3.84521H7.58559H7.57359ZM7.58559 22.1992H7.47659C4.95459 22.1422 2.94659 20.0442 3.00159 17.5212V6.82421C3.05959 4.34321 5.10859 2.34521 7.57159 2.34521H7.58859H14.2386C14.4426 2.34521 14.6376 2.42821 14.7796 2.57521L19.8446 7.85221C19.9786 7.99121 20.0536 8.17821 20.0536 8.37121V17.5372C20.0716 20.0462 18.1176 22.0962 15.6046 22.1982L7.58559 22.1992Z" fill="#0C81F6"/>
</g>
<path fill-rule="evenodd" clip-rule="evenodd" d="M19.2986 9.31798H16.5436C14.7136 9.31298 13.2256 7.82098 13.2256 5.99298V3.08398C13.2256 2.66998 13.5616 2.33398 13.9756 2.33398C14.3896 2.33398 14.7256 2.66998 14.7256 3.08398V5.99298C14.7256 6.99698 15.5426 7.81498 16.5456 7.81798H19.2986C19.7126 7.81798 20.0486 8.15398 20.0486 8.56798C20.0486 8.98198 19.7126 9.31798 19.2986 9.31798" fill="#0C81F6"/>
<path fill-rule="evenodd" clip-rule="evenodd" d="M13.7887 16.4419H8.38867C7.97467 16.4419 7.63867 16.1059 7.63867 15.6919C7.63867 15.2779 7.97467 14.9419 8.38867 14.9419H13.7887C14.2027 14.9419 14.5387 15.2779 14.5387 15.6919C14.5387 16.1059 14.2027 16.4419 13.7887 16.4419" fill="#0C81F6"/>
<path fill-rule="evenodd" clip-rule="evenodd" d="M11.7442 12.6899H8.38818C7.97418 12.6899 7.63818 12.3539 7.63818 11.9399C7.63818 11.5259 7.97418 11.1899 8.38818 11.1899H11.7442C12.1582 11.1899 12.4942 11.5259 12.4942 11.9399C12.4942 12.3539 12.1582 12.6899 11.7442 12.6899" fill="#0C81F6"/>
</svg>
