<svg width="24" height="25" viewBox="0 0 24 25" fill="none" xmlns="http://www.w3.org/2000/svg">
<path fill-rule="evenodd" clip-rule="evenodd" d="M7.57166 4.17822C5.91466 4.17822 4.53966 5.52022 4.50066 7.17522V18.0062C4.47166 19.6532 5.77866 21.0052 7.41266 21.0332L7.56066 21.0322H15.5727C17.2147 21.0142 18.5537 19.6572 18.5517 18.0072V9.00822L13.9167 4.17822H7.58466H7.57166ZM7.39866 22.5332C4.92566 22.4902 2.95866 20.4532 3.00066 17.9932V7.15722C3.05766 4.67622 5.10566 2.67822 7.56866 2.67822H7.58766H14.2357C14.4397 2.67822 14.6347 2.76122 14.7767 2.90822L19.8427 8.18722C19.9767 8.32622 20.0517 8.51322 20.0517 8.70622V18.0062C20.0557 20.4752 18.0497 22.5062 15.5807 22.5322L7.39866 22.5332Z" fill="#303133"/>
<path fill-rule="evenodd" clip-rule="evenodd" d="M19.2961 9.65099H16.5421C14.7111 9.64599 13.2231 8.15399 13.2231 6.32599V3.41699C13.2231 3.00299 13.5591 2.66699 13.9731 2.66699C14.3871 2.66699 14.7231 3.00299 14.7231 3.41699V6.32599C14.7231 7.32999 15.5401 8.14799 16.5441 8.15099H19.2961C19.7101 8.15099 20.0461 8.48699 20.0461 8.90099C20.0461 9.31499 19.7101 9.65099 19.2961 9.65099Z" fill="#303133"/>
<path fill-rule="evenodd" clip-rule="evenodd" d="M13.7926 15.1636H8.89355C8.47955 15.1636 8.14355 14.8276 8.14355 14.4136C8.14355 13.9996 8.47955 13.6636 8.89355 13.6636H13.7926C14.2066 13.6636 14.5426 13.9996 14.5426 14.4136C14.5426 14.8276 14.2066 15.1636 13.7926 15.1636Z" fill="#303133"/>
</svg>
