<svg width="24" height="25" viewBox="0 0 24 25" fill="none" xmlns="http://www.w3.org/2000/svg">
<path fill-rule="evenodd" clip-rule="evenodd" d="M21.8889 16.5622H17.8409C15.9439 16.5622 14.3999 15.0192 14.3989 13.1232C14.3989 11.2252 15.9429 9.68118 17.8409 9.68018H21.8889C22.3029 9.68018 22.6389 10.0162 22.6389 10.4302C22.6389 10.8442 22.3029 11.1802 21.8889 11.1802H17.8409C16.7699 11.1812 15.8989 12.0522 15.8989 13.1222C15.8989 14.1912 16.7709 15.0622 17.8409 15.0622H21.8889C22.3029 15.0622 22.6389 15.3982 22.6389 15.8122C22.6389 16.2262 22.3029 16.5622 21.8889 16.5622Z" fill="#303133"/>
<path fill-rule="evenodd" clip-rule="evenodd" d="M18.2983 13.8101H17.9863C17.5723 13.8101 17.2363 13.4741 17.2363 13.0601C17.2363 12.6461 17.5723 12.3101 17.9863 12.3101H18.2983C18.7123 12.3101 19.0483 12.6461 19.0483 13.0601C19.0483 13.4741 18.7123 13.8101 18.2983 13.8101Z" fill="#303133"/>
<mask id="mask0_5359_35930" style="mask-type:alpha" maskUnits="userSpaceOnUse" x="2" y="3" width="21" height="20">
<path fill-rule="evenodd" clip-rule="evenodd" d="M2 3.6665H22.6386V22.8394H2V3.6665Z" fill="white"/>
</mask>
<g mask="url(#mask0_5359_35930)">
<path fill-rule="evenodd" clip-rule="evenodd" d="M7.99751 5.1665C5.51751 5.1665 3.49951 7.1845 3.49951 9.6645V16.8415C3.49951 19.3215 5.51751 21.3395 7.99751 21.3395H16.6415C19.1215 21.3395 21.1385 19.3215 21.1385 16.8415V9.6645C21.1385 7.1845 19.1215 5.1665 16.6415 5.1665H7.99751ZM16.6415 22.8395H7.99751C4.69051 22.8395 1.99951 20.1485 1.99951 16.8415V9.6645C1.99951 6.3565 4.69051 3.6665 7.99751 3.6665H16.6415C19.9485 3.6665 22.6385 6.3565 22.6385 9.6645V16.8415C22.6385 20.1485 19.9485 22.8395 16.6415 22.8395Z" fill="#303133"/>
</g>
<path fill-rule="evenodd" clip-rule="evenodd" d="M12.6846 9.70459H7.28564C6.87164 9.70459 6.53564 9.36859 6.53564 8.95459C6.53564 8.54059 6.87164 8.20459 7.28564 8.20459H12.6846C13.0986 8.20459 13.4346 8.54059 13.4346 8.95459C13.4346 9.36859 13.0986 9.70459 12.6846 9.70459Z" fill="#303133"/>
</svg>
