<svg width="24" height="25" viewBox="0 0 24 25" fill="none" xmlns="http://www.w3.org/2000/svg">
<path fill-rule="evenodd" clip-rule="evenodd" d="M11.9951 17.7601C11.5811 17.7601 11.2451 17.4241 11.2451 17.0101V14.4731C11.2451 14.0591 11.5811 13.7231 11.9951 13.7231C12.4091 13.7231 12.7451 14.0591 12.7451 14.4731V17.0101C12.7451 17.4241 12.4091 17.7601 11.9951 17.7601" fill="#0C81F6"/>
<mask id="mask0_5341_30843" style="mask-type:alpha" maskUnits="userSpaceOnUse" x="2" y="4" width="20" height="12">
<path fill-rule="evenodd" clip-rule="evenodd" d="M2 4.91309H21.9898V15.2241H2V4.91309Z" fill="white"/>
</mask>
<g mask="url(#mask0_5341_30843)">
<path fill-rule="evenodd" clip-rule="evenodd" d="M3.5 11.7261C5.876 13.0171 8.872 13.7241 11.99 13.7241C15.114 13.7241 18.113 13.0171 20.49 11.7261V8.72409C20.49 7.44909 19.459 6.41309 18.19 6.41309H5.81C4.536 6.41309 3.5 7.44509 3.5 8.71409V11.7261ZM11.99 15.2241C8.445 15.2241 5.028 14.3661 2.371 12.8101C2.141 12.6761 2 12.4301 2 12.1631V8.71409C2 6.61809 3.709 4.91309 5.81 4.91309H18.19C20.286 4.91309 21.99 6.62209 21.99 8.72409V12.1631C21.99 12.4301 21.848 12.6761 21.619 12.8101C18.962 14.3661 15.542 15.2241 11.99 15.2241V15.2241Z" fill="#0C81F6"/>
</g>
<mask id="mask1_5341_30843" style="mask-type:alpha" maskUnits="userSpaceOnUse" x="7" y="2" width="10" height="5">
<path fill-rule="evenodd" clip-rule="evenodd" d="M7.74512 2.3335H16.2451V6.4094H7.74512V2.3335Z" fill="white"/>
</mask>
<g mask="url(#mask1_5341_30843)">
<path fill-rule="evenodd" clip-rule="evenodd" d="M15.4951 6.4095C15.0811 6.4095 14.7451 6.0735 14.7451 5.6595V5.2935C14.7451 4.4885 14.0901 3.8335 13.2851 3.8335H10.7051C9.90012 3.8335 9.24512 4.4885 9.24512 5.2935V5.6595C9.24512 6.0735 8.90912 6.4095 8.49512 6.4095C8.08112 6.4095 7.74512 6.0735 7.74512 5.6595V5.2935C7.74512 3.6615 9.07312 2.3335 10.7051 2.3335H13.2851C14.9171 2.3335 16.2451 3.6615 16.2451 5.2935V5.6595C16.2451 6.0735 15.9091 6.4095 15.4951 6.4095" fill="#0C81F6"/>
</g>
<path fill-rule="evenodd" clip-rule="evenodd" d="M17.7946 22.0735H6.19457C4.11957 22.0735 2.37257 20.4525 2.21557 18.3825L2.02557 15.8735C1.99457 15.4605 2.30457 15.0995 2.71757 15.0685C3.13257 15.0535 3.49057 15.3465 3.52257 15.7605L3.71157 18.2685C3.80957 19.5605 4.89957 20.5735 6.19457 20.5735H17.7946C19.0896 20.5735 20.1806 19.5605 20.2776 18.2685L20.4676 15.7605C20.4996 15.3465 20.8666 15.0525 21.2726 15.0685C21.6856 15.0995 21.9946 15.4605 21.9636 15.8735L21.7736 18.3825C21.6166 20.4525 19.8696 22.0735 17.7946 22.0735" fill="#0C81F6"/>
</svg>
