<svg width="24" height="25" viewBox="0 0 24 25" fill="none" xmlns="http://www.w3.org/2000/svg">
<path fill-rule="evenodd" clip-rule="evenodd" d="M12 3.8335C7.313 3.8335 3.5 7.6465 3.5 12.3335C3.5 17.0205 7.313 20.8335 12 20.8335C16.687 20.8335 20.5 17.0205 20.5 12.3335C20.5 7.6465 16.687 3.8335 12 3.8335ZM12 22.3335C6.486 22.3335 2 17.8475 2 12.3335C2 6.8195 6.486 2.3335 12 2.3335C17.514 2.3335 22 6.8195 22 12.3335C22 17.8475 17.514 22.3335 12 22.3335Z" fill="#303133"/>
<path fill-rule="evenodd" clip-rule="evenodd" d="M11.9941 13.7066C11.5801 13.7066 11.2441 13.3706 11.2441 12.9566V8.5376C11.2441 8.1236 11.5801 7.7876 11.9941 7.7876C12.4081 7.7876 12.7441 8.1236 12.7441 8.5376V12.9566C12.7441 13.3706 12.4081 13.7066 11.9941 13.7066Z" fill="#303133"/>
<path fill-rule="evenodd" clip-rule="evenodd" d="M12.004 17.1294C11.451 17.1294 10.999 16.6824 10.999 16.1294C10.999 15.5764 11.442 15.1294 11.994 15.1294H12.004C12.557 15.1294 13.004 15.5764 13.004 16.1294C13.004 16.6824 12.557 17.1294 12.004 17.1294Z" fill="#303133"/>
</svg>
