<svg width="24" height="25" viewBox="0 0 24 25" fill="none" xmlns="http://www.w3.org/2000/svg">
<mask id="mask0_5341_30924" style="mask-type:alpha" maskUnits="userSpaceOnUse" x="4" y="2" width="17" height="21">
<path fill-rule="evenodd" clip-rule="evenodd" d="M4 2.33398H20.9668V22.6896H4V2.33398Z" fill="white"/>
</mask>
<g mask="url(#mask0_5341_30924)">
<path fill-rule="evenodd" clip-rule="evenodd" d="M12.4834 3.8335C11.6354 3.8335 6.28541 5.7175 5.66841 6.2325C5.48641 6.4155 5.47941 6.7335 5.51841 8.8625C5.53641 9.8885 5.56141 11.2825 5.56141 13.2125C5.56141 18.4135 11.2834 20.7225 12.4824 21.1475C13.6804 20.7205 19.4054 18.3985 19.4054 13.2125C19.4054 11.2805 19.4304 9.8855 19.4494 8.8595C19.4874 6.7325 19.4804 6.4145 19.2874 6.2225C18.6824 5.7175 13.3314 3.8335 12.4834 3.8335M12.4834 22.6895C12.4104 22.6895 12.3374 22.6795 12.2664 22.6575C11.9314 22.5565 4.06141 20.0945 4.06141 13.2125C4.06141 11.2955 4.03641 9.9085 4.01841 8.8905C3.97241 6.3475 3.96241 5.8175 4.61941 5.1615C5.40441 4.3745 11.3494 2.3335 12.4834 2.3335C13.6164 2.3335 19.5614 4.3745 20.3484 5.1615C21.0044 5.8175 20.9944 6.3475 20.9484 8.8875C20.9304 9.9055 20.9054 11.2925 20.9054 13.2125C20.9054 20.0945 13.0354 22.5565 12.7004 22.6575C12.6294 22.6795 12.5564 22.6895 12.4834 22.6895" fill="#0C81F6"/>
</g>
<path fill-rule="evenodd" clip-rule="evenodd" d="M11.7771 14.8529V14.8529C11.5781 14.8529 11.3871 14.7739 11.2461 14.6329L9.35413 12.7389C9.06213 12.4459 9.06213 11.9699 9.35513 11.6779C9.64713 11.3849 10.1231 11.3849 10.4161 11.6779L11.7771 13.0409L15.1451 9.67288C15.4381 9.37987 15.9121 9.37987 16.2051 9.67288C16.4981 9.96588 16.4981 10.4409 16.2051 10.7339L12.3071 14.6329C12.1671 14.7739 11.9761 14.8529 11.7771 14.8529" fill="#0C81F6"/>
</svg>
