<svg width="24" height="25" viewBox="0 0 24 25" fill="none" xmlns="http://www.w3.org/2000/svg">
<mask id="mask0_5359_35936" style="mask-type:alpha" maskUnits="userSpaceOnUse" x="2" y="2" width="20" height="21">
<path fill-rule="evenodd" clip-rule="evenodd" d="M2 2.6665H21.9999V22.6665H2V2.6665Z" fill="white"/>
</mask>
<g mask="url(#mask0_5359_35936)">
<path fill-rule="evenodd" clip-rule="evenodd" d="M7.664 4.1665C5.135 4.1665 3.5 5.8995 3.5 8.5825V16.7505C3.5 19.4335 5.135 21.1665 7.664 21.1665H16.332C18.864 21.1665 20.5 19.4335 20.5 16.7505V8.5825C20.5 5.8995 18.864 4.1665 16.334 4.1665H7.664ZM16.332 22.6665H7.664C4.276 22.6665 2 20.2885 2 16.7505V8.5825C2 5.0445 4.276 2.6665 7.664 2.6665H16.334C19.723 2.6665 22 5.0445 22 8.5825V16.7505C22 20.2885 19.723 22.6665 16.332 22.6665Z" fill="#303133"/>
</g>
<path fill-rule="evenodd" clip-rule="evenodd" d="M11.9941 17.4165C11.5801 17.4165 11.2441 17.0805 11.2441 16.6665V12.6665C11.2441 12.2525 11.5801 11.9165 11.9941 11.9165C12.4081 11.9165 12.7441 12.2525 12.7441 12.6665V16.6665C12.7441 17.0805 12.4081 17.4165 11.9941 17.4165Z" fill="#303133"/>
<path fill-rule="evenodd" clip-rule="evenodd" d="M11.9991 9.87061C11.4461 9.87061 10.9941 9.42361 10.9941 8.87061C10.9941 8.31761 11.4371 7.87061 11.9891 7.87061H11.9991C12.5521 7.87061 12.9991 8.31761 12.9991 8.87061C12.9991 9.42361 12.5521 9.87061 11.9991 9.87061Z" fill="#303133"/>
</svg>
