<svg width="24" height="25" viewBox="0 0 24 25" fill="none" xmlns="http://www.w3.org/2000/svg">
<mask id="mask0_5341_30887" style="mask-type:alpha" maskUnits="userSpaceOnUse" x="4" y="15" width="16" height="8">
<path fill-rule="evenodd" clip-rule="evenodd" d="M4 15.1626H19.8399V22.5366H4V15.1626Z" fill="white"/>
</mask>
<g mask="url(#mask0_5341_30887)">
<path fill-rule="evenodd" clip-rule="evenodd" d="M11.921 16.6626C7.66 16.6626 5.5 17.3946 5.5 18.8396C5.5 20.2976 7.66 21.0366 11.921 21.0366C16.181 21.0366 18.34 20.3046 18.34 18.8596C18.34 17.4016 16.181 16.6626 11.921 16.6626M11.921 22.5366C9.962 22.5366 4 22.5366 4 18.8396C4 15.5436 8.521 15.1626 11.921 15.1626C13.88 15.1626 19.84 15.1626 19.84 18.8596C19.84 22.1556 15.32 22.5366 11.921 22.5366" fill="#0C81F6"/>
</g>
<mask id="mask1_5341_30887" style="mask-type:alpha" maskUnits="userSpaceOnUse" x="6" y="2" width="12" height="12">
<path fill-rule="evenodd" clip-rule="evenodd" d="M6.60986 2.6665H17.2299V13.2851H6.60986V2.6665Z" fill="white"/>
</mask>
<g mask="url(#mask1_5341_30887)">
<path fill-rule="evenodd" clip-rule="evenodd" d="M11.9209 4.09402C9.77989 4.09402 8.03789 5.83502 8.03789 7.97602C8.03089 10.11 9.75989 11.85 11.8919 11.858L11.9209 12.572V11.858C14.0609 11.858 15.8019 10.116 15.8019 7.97602C15.8019 5.83502 14.0609 4.09402 11.9209 4.09402M11.9209 13.285H11.8889C8.9669 13.276 6.59989 10.893 6.60989 7.97302C6.60989 5.04802 8.99189 2.66602 11.9209 2.66602C14.8489 2.66602 17.2299 5.04802 17.2299 7.97602C17.2299 10.904 14.8489 13.285 11.9209 13.285" fill="#0C81F6"/>
</g>
</svg>
